<svg id="Trust.svg" xmlns="http://www.w3.org/2000/svg" width="70" height="70" viewBox="0 0 70 70">
  <defs>
    <style>
      .cls-1 {
        fill: #fff;
        fill-rule: evenodd;
      }
    </style>
  </defs>
  <path id="Rounded_Rectangle_658_copy_4" data-name="Rounded Rectangle 658 copy 4" class="cls-1" d="M303,4580v-4a4,4,0,0,0,4,4h46.543l-1.029-2H307a2,2,0,0,1-2-2v-49a2,2,0,0,1,2-2h3v2a3,3,0,0,0,3,3h35a3,3,0,0,0,3-3v-2h3a2,2,0,0,1,2,2v1h2v-1a4,4,0,0,0-4-4h-3v-1a3,3,0,0,0-3-3h-8.025a9.491,9.491,0,0,0-9.47-9H373v70H303Zm21-10a1,1,0,0,0,1,1h11a1,1,0,0,0,1-1h0a1,1,0,0,0-1-1H325a1,1,0,0,0-1,1h0Zm-3-3h19a1,1,0,0,0,0-2H321A1,1,0,0,0,321,4567Zm15.5-30a9.432,9.432,0,0,0-6,2.14,9.5,9.5,0,1,0-11.5,15.1v0.01l0.134,0.09c0.062,0.04.127,0.08,0.191,0.12l10.1,6.54h2.158l10.1-6.54c0.064-.04.129-0.08,0.191-0.12l0.134-.09v-0.01A9.5,9.5,0,0,0,336.5,4537Zm36.5,25v-17a2,2,0,0,0-2-2h-2v-3a2,2,0,0,0-2-2h-1v-4a2,2,0,0,0-2-2h-6a2,2,0,0,0-2,2v4h-1a2,2,0,0,0-2,2v26h0v2l6,12h4l6-12v-23h2v15.1a1.492,1.492,0,0,0-1,1.4v1a1.5,1.5,0,0,0,3,0V4562Zm-18-17h12v21H355v-21Zm2,15a1,1,0,0,0,2,0v-11a1,1,0,0,0-2,0v11Zm-2-20h12v3H355v-3Zm3-6h6v4h-6v-4Zm6.355,39h-6.71l-2.355-5h11.42ZM362,4578h-2l-1.413-3h4.826Zm-21.254-25.32,0,0.01L331,4559h-1l-9.551-6.19c-0.067-.05-0.135-0.09-0.2-0.13l-0.029-.02v-0.01a7.495,7.495,0,1,1,10.28-10.64A7.5,7.5,0,1,1,340.746,4552.68Zm-5.037-7.39a1.019,1.019,0,0,0-1.414,0l-4.309,4.3-2.305-2.31a1,1,0,0,0-1.414,0,0.984,0.984,0,0,0,0,1.4l3.01,3.02a1,1,0,0,0,1.414,0l5.018-5A0.994,0.994,0,0,0,335.709,4545.29ZM349,4522v5a1,1,0,0,1-1,1H313a1,1,0,0,1-1-1v-5a1,1,0,0,1,1-1h10.151a7.5,7.5,0,1,1,14.7,0H348A1,1,0,0,1,349,4522Zm-18.5-7a4.5,4.5,0,1,0,4.5,4.5A4.5,4.5,0,0,0,330.5,4515Zm0,7a2.5,2.5,0,1,1,2.5-2.5A2.5,2.5,0,0,1,330.5,4522Zm-9.475-3H313a3,3,0,0,0-3,3v1h-3a4,4,0,0,0-4,4v-17h27.5A9.491,9.491,0,0,0,321.025,4519Z" transform="translate(-303 -4510)"/>
</svg>
