<svg id="Years.svg" xmlns="http://www.w3.org/2000/svg" width="70" height="70" viewBox="0 0 70 70">
  <defs>
    <style>
      .cls-1 {
        fill: #fff;
        fill-rule: evenodd;
      }
    </style>
  </defs>
  <path class="cls-1" d="M696,4530.5a5.5,5.5,0,1,1-5.5-5.5A5.5,5.5,0,0,1,696,4530.5Zm-1,43.52c2.247-1.05,4.493-1.21,6-3s6.348-8.49,8-11.01a10.814,10.814,0,0,0,2-6.01v26H641v-26a10.81,10.81,0,0,0,2,6c1.651,2.52,6.493,9.21,8,11s3.753,1.95,6,3,1.98,2.19,2,4c0,0.4.007,0.71,0.008,0.96,0,0.01-.008.03-0.008,0.04a1,1,0,0,0,2,0,0.172,0.172,0,0,0-.009-0.04c-0.007-1.03-.017-1.99-0.031-2.69-0.052-2.61-1.147-3.18-1.981-3.7s-4.753-1.57-5.692-2.14-2.71-3.18-3.492-4.33-3.6-4.95-4.118-5.78a25.4,25.4,0,0,1-2.45-4.33,49.234,49.234,0,0,1-.209-6.67c0-2.19-.052-7.2,0-8.55s0.574-1.77,1.564-1.77,1.46,1.2,1.564,2.24,0.521,8.13.834,10.27a8.371,8.371,0,0,0,1.668,4.01c0.782,0.83,3.124,3.55,3.962,4.43,0.99,1.04,2.4,2.94,2.919,2.97a1.437,1.437,0,0,0,1.459-1.09,3.724,3.724,0,0,0-1.042-1.67c-0.678-.78-4.431-4.64-5.421-5.79a5.116,5.116,0,0,1-1.46-3.54c0.052-1.2.007-1.88,1.676-1.88s3.984,2.91,5.244,3.98c0.985,0.84,4.854,4.44,7.08,6.81,1.308,1.39,4.287,4.07,5.311,5.89a15.62,15.62,0,0,1,1.6,5.59c0.027,0.76.04,4.38,0.046,7.66a1.019,1.019,0,0,0-.024.12,1,1,0,0,0,2,0h0v-1s-0.012-4.2,0-7-1.413-6.59-5.145-10.29c-4.023-3.99-6.38-6.52-10.085-9.76-2.7-2.37-4.143-5.21-7.97-3.23,0,0-.4-4.48-0.8-7.72a3.358,3.358,0,0,0-4-3c-0.708.06-3,.08-3,4v-31h31a9.215,9.215,0,0,0-8.965,8.86H663v2.02c0.035,0.01.072,0,.107,0.01a9.584,9.584,0,0,0,3.391,6.08c-4.375.13-9.462,1.17-9.5,7.03a14.374,14.374,0,0,0,5,11.17V4550a1,1,0,0,0,2,0v-3.27a20.958,20.958,0,0,0,5,2.48c2.666,0.89,9.895.83,14,.8V4550h6.5a4.5,4.5,0,0,0,0-9H680.8a34.618,34.618,0,0,1-5.792-.54c-0.372-.08-0.7-0.19-1.038-0.29A0.851,0.851,0,0,0,674,4540v-4.6l5.234-5.25a20.7,20.7,0,0,1,2.457.7l-4.745,8.15h2.573l3.705-6.7a7.442,7.442,0,0,0,9.65,5.33l-1.006,1.83a6.383,6.383,0,0,1,1.735,1.04l3.78-6.86-0.036-.02h0a7.5,7.5,0,0,0-13.308-6.87h0a0.138,0.138,0,0,1-.027.04c-0.1.18-.192,0.36-0.279,0.55l-0.93,1.6a46.506,46.506,0,0,0-5.992-1.42A9.62,9.62,0,0,0,681,4519.5a9.256,9.256,0,0,0-9-9.5h39v31c0-3.92-2.292-3.94-3-4a3.358,3.358,0,0,0-4,3c-0.4,3.24-.8,7.72-0.8,7.72-3.827-1.98-5.265.87-7.97,3.24-3.705,3.24-6.062,5.77-10.085,9.76-3.732,3.71-5.157,7.5-5.145,10.3s0,7.01,0,7.01V4579a1,1,0,0,0,2,0,1.019,1.019,0,0,0-.024-0.12c0.006-3.28.019-6.88,0.046-7.64a15.727,15.727,0,0,1,1.6-5.6c1.024-1.81,4-4.49,5.311-5.88,2.226-2.37,6.1-5.98,7.079-6.82,1.261-1.07,3.577-3.98,5.245-3.98s1.624,0.68,1.676,1.88a5.156,5.156,0,0,1-1.46,3.55c-0.99,1.14-4.743,5-5.421,5.79a3.76,3.76,0,0,0-1.043,1.66,1.455,1.455,0,0,0,1.46,1.1c0.523-.04,1.929-1.93,2.919-2.97,0.838-.89,3.18-3.6,3.962-4.44a8.324,8.324,0,0,0,1.668-4.01c0.313-2.14.73-9.24,0.834-10.28s0.573-2.24,1.564-2.24,1.511,0.42,1.564,1.77,0,6.36,0,8.56a49.234,49.234,0,0,1-.209,6.67,24.716,24.716,0,0,1-2.45,4.33c-0.521.84-3.336,4.64-4.118,5.79s-2.554,3.76-3.492,4.33-4.858,1.62-5.692,2.14-1.929,1.1-1.981,3.7c-0.014.7-.024,1.65-0.031,2.67a0.172,0.172,0,0,0-.009.04,1,1,0,0,0,2,0c0-.01-0.007-0.03-0.008-0.04,0-.25,0-0.55.008-0.93C693.02,4576.21,692.753,4575.08,695,4574.02Zm-9.258-19.37,0.045,0.03,1.477-2.68h-2.28l-0.9,1.64-0.093-.03,0.025,0.02a5.477,5.477,0,0,1-9.784-1.63H672.3a7.75,7.75,0,0,0,3.455,5.04A7.484,7.484,0,0,0,685.742,4554.65ZM672,4512.12a6.8,6.8,0,0,1,.786.09,8.458,8.458,0,0,1-7.728,6.74A7.168,7.168,0,0,1,672,4512.12Zm6.935,6.53a8.466,8.466,0,0,1-3.79-5.71A7.408,7.408,0,0,1,678.935,4518.65Zm-5.175-3.3a10.507,10.507,0,0,0,5.113,5.55,6.923,6.923,0,0,1-13.739.07A10.431,10.431,0,0,0,673.76,4515.35Zm3.149,14.34-3.959,3.97-5.473-4.8c1.334,0.01,2.582.09,3.562,0.15A51.584,51.584,0,0,1,676.909,4529.69Zm-6.106,11.45a23.015,23.015,0,0,0,7.085,1.75c0.258,0.02.648,0.04,1.112,0.06V4543h10.5a2.5,2.5,0,0,1,0,5H679v-0.02c-2.233,0-7-.04-8.993-0.64a18.026,18.026,0,0,1-7.195-4.21,13.911,13.911,0,0,1-3.9-8.98c0.079-2.05.553-3.84,3.466-4.71a14.159,14.159,0,0,1,2.277-.45l7.341,6.44v4.07a10.843,10.843,0,0,1-4.7-3.6c-0.94-1.34-1.679-.88-2.05-0.62-0.465.34-.245,1.2,0.138,1.81A13.078,13.078,0,0,0,670.8,4541.14Z" transform="translate(-641 -4510)"/>
</svg>
