<svg id="Filials.svg" xmlns="http://www.w3.org/2000/svg" width="70" height="70" viewBox="0 0 70 70">
  <defs>
    <style>
      .cls-1 {
        fill: #fff;
        fill-rule: evenodd;
      }
    </style>
  </defs>
  <path id="Rounded_Rectangle_674_copy_3" data-name="Rounded Rectangle 674 copy 3" class="cls-1" d="M1008,4545a3,3,0,1,1,3,3A3,3,0,0,1,1008,4545Zm37,0a1,1,0,0,0-1,1h-0.03a32.992,32.992,0,1,1-58.86-21.45,9.936,9.936,0,0,1-.812-2.17A34.852,34.852,0,0,0,976,4545v-35h34.97a34.847,34.847,0,0,0-11.192,1.85,10.462,10.462,0,0,1,1.722,1.55,32.948,32.948,0,0,1,32.11,7.58l-5.67,5.67a24.831,24.831,0,0,0-23.99-5.62,10,10,0,0,1-.52,2.27,22.839,22.839,0,0,1,23.09,4.76l-5.65,5.66a14.975,14.975,0,0,0-23.975,16.34A10.077,10.077,0,0,1,998,4550c0.344,0,.684.02,1.018,0.05a12.99,12.99,0,0,1,20.432-14.91l-5.69,5.69a5.041,5.041,0,1,0,1.41,1.42l22.55-22.56a1,1,0,0,0,0-1.41,1.008,1.008,0,0,0-1.42,0l-1.27,1.28a34.9,34.9,0,0,0-23.99-9.56H1046v36A1,1,0,0,0,1045,4545Zm-56.282,11.29a10.061,10.061,0,0,1,1.184-2.14,22.959,22.959,0,0,1,1.924-21.84l-1.4-1.5A24.886,24.886,0,0,0,988.718,4556.29Zm10.849-32.03-0.017-.01A6.928,6.928,0,0,0,1001,4520a7,7,0,1,0-12.606,4.18l-0.019.01L993,4530h2ZM998,4553a6.991,6.991,0,0,0-5.606,11.18l-0.019.01L997,4570h2l4.57-5.74-0.02-.01A6.988,6.988,0,0,0,998,4553Zm6.96,14.17-0.03.03-1.52,1.62A24.925,24.925,0,0,0,1032.3,4558h-0.83l-0.91-.97A22.819,22.819,0,0,1,1004.96,4567.17Zm18.6-18.89a12.93,12.93,0,0,1-15.87,9.28,10.035,10.035,0,0,1,.29,2.14,15,15,0,0,0,16.84-8.96A10.031,10.031,0,0,1,1023.56,4548.28ZM1033,4538a7,7,0,0,0-5.61,11.18l-0.02.01L1032,4555h2l4.57-5.74-0.02-.01A6.988,6.988,0,0,0,1033,4538Zm4,10-4,5-4-5,0.01-.01a5,5,0,1,1,7.98,0Zm-2-4h-1v-1a1,1,0,0,0-2,0v1h-1a1,1,0,0,0,0,2h1v1a1,1,0,0,0,2,0v-1h1A1,1,0,0,0,1035,4544Zm-33,19-4,5-4-5,0.012-.01a5,5,0,1,1,7.978,0Zm-2-4h-1v-1a1,1,0,0,0-2,0v1h-1a1,1,0,0,0,0,2h1v1a1,1,0,0,0,2,0v-1h1A1,1,0,0,0,1000,4559Zm-6-31-4-5,0.012-.01a5,5,0,1,1,7.976,0L998,4523Zm2-9h-1v-1a1,1,0,0,0-2,0v1h-1a1,1,0,0,0,0,2h1v1a1,1,0,0,0,2,0v-1h1A1,1,0,0,0,996,4519Zm15,61a34.991,34.991,0,0,0,34.97-33.83,1.01,1.01,0,0,0,.03-0.17v34H976v-35A35,35,0,0,0,1011,4580Z" transform="translate(-976 -4510)"/>
</svg>
