<svg id="Doctors.svg" xmlns="http://www.w3.org/2000/svg" width="70" height="70" viewBox="0 0 70 70">
  <defs>
    <style>
      .cls-1 {
        fill: #fff;
        fill-rule: evenodd;
      }
    </style>
  </defs>
  <path id="Rounded_Rectangle_645_copy" data-name="Rounded Rectangle 645 copy" class="cls-1" d="M1312,4510h70v70h-70v-70Zm69,70a1,1,0,0,1-1-1h-0.05a23.977,23.977,0,0,0-15.95-21.6V4570c0,0.03-.02.06-0.02,0.1a5,5,0,1,1-1.96,0c0-.04-0.02-0.07-0.02-0.1v-13a1.18,1.18,0,0,1,.04-0.2,23.594,23.594,0,0,0-6.04-.8h-0.02a0.984,0.984,0,0,1-.11.47l-8,16.06a0.236,0.236,0,0,1-.05.05,0.489,0.489,0,0,1-.12.13,0.521,0.521,0,0,1-.16.14,0.078,0.078,0,0,1-.04.04c-0.04.02-.08,0.02-0.11,0.04a1.587,1.587,0,0,1-.2.07,1.81,1.81,0,0,1-.38,0,1.587,1.587,0,0,1-.2-0.07c-0.03-.02-0.07-0.02-0.11-0.04a0.151,0.151,0,0,1-.04-0.04,0.521,0.521,0,0,1-.16-0.14,0.489,0.489,0,0,1-.12-0.13,0.236,0.236,0,0,1-.05-0.05l-8-16.06a1.129,1.129,0,0,1-.12-0.47H1338a23.909,23.909,0,0,0-5.9.76l-0.14.05a1.286,1.286,0,0,1,.04.19v8.12c3.95,0.86,7,6.74,7,13.88a1,1,0,0,1-1,1h-2a1,1,0,0,1,0-2h0.97c-0.25-6.16-2.83-11-5.97-11h0c-3.14,0-5.72,4.84-5.97,11H1326a1,1,0,0,1,0,2h-2a1,1,0,0,1-1-1c0-7.14,3.05-13.02,7-13.88v-7.71a23.975,23.975,0,0,0-15.95,21.59H1314a1,1,0,0,1-2,0,0.9,0.9,0,0,1,.09-0.4,25.939,25.939,0,0,1,16.64-22.84A28.04,28.04,0,0,1,1321,4536c0-14.36,9.85-26,22-26a19.02,19.02,0,0,1,8.44,1.99l-0.05.06c0.37-.03.74-0.05,1.11-0.05,11.32,0,20.5,10.97,20.5,24.5a26.44,26.44,0,0,1-7.81,19.23,25.942,25.942,0,0,1,16.72,22.87,0.9,0.9,0,0,1,.09.4A1,1,0,0,1,1381,4580Zm-21-5a3,3,0,1,0,3-3A3,3,0,0,0,1360,4575Zm-13-5.21,6.87-13.79h-1.14a16.916,16.916,0,0,1-11.46,0h-1.14Zm3-56.24a17,17,0,0,0-7-1.55c-11.05,0-20,10.74-20,24a25.788,25.788,0,0,0,7.87,19.04,25.745,25.745,0,0,1,6.55-1.01,17.018,17.018,0,0,1-7.15-11.1,4.991,4.991,0,0,1-.27-9.83l0.51-.13s1.33-.27,2.55-0.52c9.42-1.93,16.29-9.47,16.87-18.73l0.08-.01C1350.01,4513.66,1350,4513.6,1350,4513.55Zm0.66,6.22a23.436,23.436,0,0,1-17.03,14.58c-1.33.3-2.63,0.65-2.63,0.65a3,3,0,0,0,0,6h1.05a14.982,14.982,0,0,0,29.9,0H1363a3,3,0,0,0,0-6l-1.28-.34C1356.31,4533.09,1352.25,4527.24,1350.66,4519.77ZM1371,4536.5c0-12.43-8.28-22.5-18.5-22.5-0.16,0-.32.02-0.48,0.03,0.17,9.29,4.55,17.1,10.46,18.76l1.52,0.31a4.991,4.991,0,0,1-.27,9.83,17.018,17.018,0,0,1-7.15,11.1,26.143,26.143,0,0,1,6.42.97C1367.83,4550.95,1371,4544.18,1371,4536.5Zm-7-6.56a3.055,3.055,0,0,1-.92-0.13c-1.94-.49-3.39-1.99-4.76-3.96-2.26-3.26-2.22-4.99-2.22-4.99a6.417,6.417,0,0,1-.07-0.89,0.952,0.952,0,0,1,.97-0.97,1,1,0,0,1,.96.78,18.045,18.045,0,0,0,1.88,4.63,7.036,7.036,0,0,0,4.16,3.5,1.052,1.052,0,0,1,1,1.03A1,1,0,0,1,1364,4529.94Zm-9,8.06h-4a1,1,0,0,1,0-2h4A1,1,0,0,1,1355,4538Zm-3.83,7.29a0.812,0.812,0,0,0,.1-0.09l0.01,0.01a1.031,1.031,0,0,1,.59-0.21,1,1,0,0,1,1,1,0.948,0.948,0,0,1-.24.63l0.03,0.03a7.993,7.993,0,0,1-11.2.1l0.01-.02a0.971,0.971,0,0,1-.35-0.74,1,1,0,0,1,1-1,0.966,0.966,0,0,1,.62.23h0.01l0.03,0.03a0.317,0.317,0,0,1,.06.05,5.952,5.952,0,0,0,8.33-.02h0ZM1343,4538h-4a1,1,0,0,1,0-2h4A1,1,0,0,1,1343,4538Zm0-19.97v0.03a12.814,12.814,0,0,0-8.23,3.99,14.055,14.055,0,0,0-3.74,5.95,1,1,0,0,1-2,0s-0.29-2.86,4.2-7.31a15.093,15.093,0,0,1,9.22-4.65,2.505,2.505,0,0,1,.55-0.01A1,1,0,0,1,1343,4518.03Z" transform="translate(-1312 -4510)"/>
</svg>
