<?xml version="1.0" encoding="utf-8"?>
<!-- Generator: Adobe Illustrator 26.4.1, SVG Export Plug-In . SVG Version: 6.00 Build 0)  -->
<svg version="1.1" id="Слой_1" xmlns="http://www.w3.org/2000/svg" xmlns:xlink="http://www.w3.org/1999/xlink" x="0px" y="0px"
	 viewBox="0 0 500.4 104.9" style="enable-background:new 0 0 500.4 104.9;" xml:space="preserve">
<style type="text/css">
	.st0{fill:none;stroke:#AA2724;stroke-miterlimit:10;}
	.st1{fill:#286138;}
	.st2{fill:#A62927;}
	.st3{font-family:'Gabriola';}
	.st4{font-size:45px;}
</style>
<g>
	<polygon class="st0" points="16.3,102.8 107.7,102.8 107.7,102.8 	"/>
	<g>
		<rect x="6.3" y="41.6" class="st0" width="105.3" height="3"/>
		<rect x="5.7" y="37.5" class="st0" width="106.5" height="4.1"/>
	</g>
	<polygon class="st0" points="112.3,37.5 5.7,37.5 2.2,33.1 115.8,33.1 	"/>
	<path class="st0" d="M59,4.4L3.4,32.6h111.1L59,4.4z M59,8.8l41.2,20.9H17.8L59,8.8z"/>
	<g>
		<g>
			<rect x="55.3" y="48.9" class="st0" width="8.1" height="50.4"/>
			<rect x="54" y="44.6" class="st0" width="10.6" height="4.3"/>
			<rect x="53.9" y="99.3" class="st0" width="10.7" height="3.5"/>
		</g>
	</g>
	<g>
		<g>
			<rect x="78.5" y="48.9" class="st0" width="8.1" height="50.4"/>
			<rect x="77.2" y="44.6" class="st0" width="10.6" height="4.3"/>
			<rect x="77.1" y="99.3" class="st0" width="10.7" height="3.5"/>
		</g>
	</g>
	<g>
		<g>
			<rect x="101.8" y="48.9" class="st0" width="8.1" height="50.4"/>
			<rect x="100.4" y="44.6" class="st0" width="10.6" height="4.3"/>
			<rect x="100.4" y="99.3" class="st0" width="10.7" height="3.5"/>
		</g>
	</g>
	<g>
		<rect x="66.6" y="52" class="st0" width="8.5" height="11.5"/>
		<polygon class="st0" points="75.1,52 66.6,52 65.6,49.5 76.1,49.5 		"/>
		<rect x="66.6" y="52" class="st0" width="4.3" height="4.1"/>
		<rect x="70.9" y="52" class="st0" width="4.3" height="4.1"/>
		<rect x="66.6" y="56.1" class="st0" width="4.3" height="3.5"/>
		<rect x="70.9" y="56.1" class="st0" width="4.3" height="3.5"/>
		<rect x="70.9" y="59.7" class="st0" width="4.3" height="3.8"/>
	</g>
	<g>
		<rect x="66.6" y="76.2" class="st0" width="8.5" height="11.5"/>
		<polygon class="st0" points="75.1,76.2 66.6,76.2 65.6,73.7 76.1,73.7 		"/>
		<rect x="66.6" y="76.2" class="st0" width="4.3" height="4.1"/>
		<rect x="70.9" y="76.2" class="st0" width="4.3" height="4.1"/>
		<rect x="66.6" y="80.3" class="st0" width="4.3" height="3.5"/>
		<rect x="70.9" y="80.3" class="st0" width="4.3" height="3.5"/>
		<rect x="70.9" y="83.8" class="st0" width="4.3" height="3.8"/>
	</g>
	<g>
		<g>
			<rect x="31.7" y="48.9" class="st0" width="8.1" height="50.4"/>
			<rect x="30.4" y="44.6" class="st0" width="10.6" height="4.3"/>
			<rect x="30.3" y="99.3" class="st0" width="10.7" height="3.5"/>
		</g>
	</g>
	<g>
		<rect x="43" y="52" class="st0" width="8.5" height="11.5"/>
		<polygon class="st0" points="51.6,52 43,52 42.1,49.5 52.5,49.5 		"/>
		<rect x="43" y="52" class="st0" width="4.3" height="4.1"/>
		<rect x="47.3" y="52" class="st0" width="4.3" height="4.1"/>
		<rect x="43" y="56.2" class="st0" width="4.3" height="3.5"/>
		<rect x="47.3" y="56.2" class="st0" width="4.3" height="3.5"/>
		<rect x="47.3" y="59.7" class="st0" width="4.3" height="3.8"/>
	</g>
	<g>
		<rect x="43" y="76.2" class="st0" width="8.5" height="11.5"/>
		<polygon class="st0" points="51.6,76.2 43,76.2 42.1,73.7 52.5,73.7 		"/>
		<rect x="43" y="76.2" class="st0" width="4.3" height="4.1"/>
		<rect x="47.3" y="76.2" class="st0" width="4.3" height="4.1"/>
		<rect x="43" y="80.3" class="st0" width="4.3" height="3.5"/>
		<rect x="47.3" y="80.3" class="st0" width="4.3" height="3.5"/>
		<rect x="47.3" y="83.9" class="st0" width="4.3" height="3.8"/>
	</g>
	<g>
		<g>
			<rect x="8.3" y="48.9" class="st0" width="8.1" height="50.4"/>
			<rect x="7" y="44.6" class="st0" width="10.6" height="4.3"/>
			<rect x="6.9" y="99.3" class="st0" width="10.7" height="3.5"/>
		</g>
	</g>
	<g>
		<rect x="19.7" y="52" class="st0" width="8.5" height="11.5"/>
		<polygon class="st0" points="28.2,52 19.7,52 18.7,49.5 29.2,49.5 		"/>
		<rect x="19.7" y="52" class="st0" width="4.3" height="4.1"/>
		<rect x="23.9" y="52" class="st0" width="4.3" height="4.1"/>
		<rect x="19.7" y="56.2" class="st0" width="4.3" height="3.5"/>
		<rect x="23.9" y="56.2" class="st0" width="4.3" height="3.5"/>
		<rect x="23.9" y="59.7" class="st0" width="4.3" height="3.8"/>
	</g>
	<g>
		<rect x="19.7" y="76.2" class="st0" width="8.5" height="11.5"/>
		<polygon class="st0" points="28.2,76.2 19.7,76.2 18.7,73.7 29.2,73.7 		"/>
		<rect x="19.7" y="76.2" class="st0" width="4.3" height="4.1"/>
		<rect x="23.9" y="76.2" class="st0" width="4.3" height="4.1"/>
		<rect x="19.7" y="80.3" class="st0" width="4.3" height="3.5"/>
		<rect x="23.9" y="80.3" class="st0" width="4.3" height="3.5"/>
		<rect x="23.9" y="83.9" class="st0" width="4.3" height="3.8"/>
	</g>
	<g>
		<rect x="89.7" y="52.1" class="st0" width="8.5" height="11.5"/>
		<polygon class="st0" points="98.2,52.1 89.7,52.1 88.7,49.6 99.2,49.6 		"/>
		<rect x="89.7" y="52.1" class="st0" width="4.3" height="4.1"/>
		<rect x="93.9" y="52.1" class="st0" width="4.3" height="4.1"/>
		<rect x="89.7" y="56.2" class="st0" width="4.3" height="3.5"/>
		<rect x="93.9" y="56.2" class="st0" width="4.3" height="3.5"/>
		<rect x="93.9" y="59.7" class="st0" width="4.3" height="3.8"/>
	</g>
	<g>
		<rect x="89.7" y="76.3" class="st0" width="8.5" height="11.5"/>
		<polygon class="st0" points="98.2,76.3 89.7,76.3 88.7,73.7 99.2,73.7 		"/>
		<rect x="89.7" y="76.3" class="st0" width="4.3" height="4.1"/>
		<rect x="93.9" y="76.3" class="st0" width="4.3" height="4.1"/>
		<rect x="89.7" y="80.4" class="st0" width="4.3" height="3.5"/>
		<rect x="93.9" y="80.4" class="st0" width="4.3" height="3.5"/>
		<rect x="93.9" y="83.9" class="st0" width="4.3" height="3.8"/>
	</g>
	<g>
		<g>
			<path class="st1" d="M40.2,23.4c7.4-0.6,14.3-3.1,21.5-5.1c3.7-1,7.4-1.7,11.2-2.1c3.6-0.4,7.5-0.8,10.8,0.9
				c0.6,0.3,1-0.6,0.5-0.8c-3.2-1.6-6.7-1.4-10.2-1.1c-3.7,0.3-7.5,0.9-11.1,1.9C55.3,19,48,21.8,40.2,22.5
				C39.6,22.5,39.6,23.5,40.2,23.4L40.2,23.4z"/>
		</g>
	</g>
	<g>
		<g>
			<path class="st1" d="M83.1,29c-6.4-2-12-5.4-17.8-8.4c-3.3-1.7-6.6-3.5-10.1-4.6s-7.3-2.3-11-2.6c-3.4-0.3-7,0.5-9.3,3.2
				c-0.4,0.5,0.3,1.1,0.7,0.7c2.1-2.6,5.6-3.2,8.8-2.9c3.7,0.4,7.4,1.5,10.9,2.7c6.3,2.1,12,5.9,18,9c3.1,1.6,6.3,3,9.7,4
				C83.4,30.1,83.7,29.2,83.1,29L83.1,29z"/>
		</g>
	</g>
	<g>
		<g>
			<path class="st1" d="M90.8,19.6c-3.2-0.9-6.4-1.9-9.6-2.6c-1.8-0.4-3.6-0.6-5.4-1c-1.7-0.4-3.3-1.3-4.9-2.2S67.8,12,66.3,11
				c-1.3-0.9-2.6-2-4.1-2.5C60.8,8,59.1,8,57.6,8c-1.8,0-3.5,0.1-5.3,0.5c-3.6,0.8-6.8,3.1-10.6,3.2c-0.6,0-0.6,1,0,1
				c3.2,0,5.9-1.6,8.9-2.6c1.7-0.6,3.4-0.9,5.2-1s3.7-0.2,5.5,0.1c1.7,0.3,3,1.4,4.4,2.4c1.4,1,2.9,1.9,4.4,2.8
				c1.5,0.8,3,1.7,4.6,2.2c1.7,0.6,3.4,0.7,5.1,1c3.7,0.8,7.3,1.8,10.9,2.9C91.1,20.7,91.4,19.7,90.8,19.6L90.8,19.6z"/>
		</g>
	</g>
	<g>
		<g>
			<path class="st1" d="M22.3,22.6c4.5,0.9,9,0.7,13.5,0.7c4.6,0,9,0.4,13.6,0.9c4.6,0.4,9.3,0.7,13.9,0.1c4.5-0.6,8.7-2,13.2-2.5
				c2.4-0.2,4.8-0.1,7.2-0.4c1.1-0.2,2.2-0.5,3.3-0.9c1.2-0.4,2.2-0.7,3.4-0.1c0.6,0.3,1-0.6,0.5-0.8c-1.7-0.8-3.1-0.4-4.8,0.2
				c-2.2,0.8-4.4,0.8-6.6,0.9c-4.5,0.1-8.8,1.2-13.1,2.1c-4.7,0.9-9.3,1-14,0.7s-9.3-1-14-1.1c-5.3-0.1-10.6,0.3-15.8-0.7
				C21.9,21.6,21.7,22.5,22.3,22.6L22.3,22.6z"/>
		</g>
	</g>
	<g>
		<g>
			<path class="st1" d="M103.8,26.6c-6.9-0.7-13.8-1.4-20.7-2.2c-6.7-0.8-13.4-2.2-19.6-4.9c-2.9-1.3-5.8-2.6-9-3.2
				c-3.2-0.6-6.5-0.7-9.7-0.6c-3.2,0.1-6.3,0.4-9.3,1.6c-2.5,1-4.7,2.5-6.9,4C26.2,23,23.8,24.8,21,26c-1.6,0.7-3.2,1.1-5,1.2
				c-2,0.1-3.9-0.1-5.9-0.1c-0.6,0-0.6,1,0,1c3.2,0,6.3,0.4,9.4-0.5c2.5-0.8,4.8-2.1,6.9-3.6c2.2-1.5,4.4-3.1,6.7-4.5
				c2.8-1.6,5.9-2.5,9.1-2.7c3.3-0.3,6.7-0.2,9.9,0.2c3.5,0.4,6.6,1.6,9.8,3c6,2.7,12.3,4.3,18.8,5.2c7.6,1.1,15.3,1.7,22.9,2.5
				C104.4,27.7,104.4,26.7,103.8,26.6L103.8,26.6z"/>
		</g>
	</g>
	<g>
		<g>
			<path class="st1" d="M23.4,29.2c0.9-0.1,1.7,0.2,2.6,0.3c0.9,0.1,1.6-0.1,2.5-0.4c1.8-0.7,3.5-1.3,5.3-1.7
				c3.7-0.8,7.4-0.9,11.1-1.6c6.7-1.2,13.3-3.5,18.9-7.3c1.5-1,3-2.1,4.3-3.4c1.4-1.2,2.5-2.8,4.3-3.5c0.6-0.2,0.1-1.1-0.5-0.8
				c-1.4,0.6-2.3,1.6-3.3,2.6c-1.2,1.2-2.6,2.4-4,3.4c-2.7,2-5.8,3.6-8.9,4.9c-3.1,1.2-6.3,2.2-9.5,2.9c-3.5,0.7-7.1,1-10.7,1.6
				c-2.1,0.3-4.1,0.8-6.1,1.6c-1,0.4-2.1,0.9-3.1,0.9c-1-0.1-1.8-0.4-2.8-0.3C22.8,28.3,22.8,29.3,23.4,29.2L23.4,29.2z"/>
		</g>
	</g>
	<g>
		<g>
			<path class="st1" d="M106.4,28.2C96.6,29,86.8,29,77,28.9c-4.8-0.1-9.7,0-14.5-0.3c-4.6-0.3-9.5-0.8-13.2-3.7
				c-3.9-3.1-6.1-7.8-8.1-12.3c-0.3-0.6-1.1-0.1-0.8,0.5c1.8,4.1,3.7,8.2,7,11.4c3.2,3.2,7.2,4.3,11.6,4.8c5,0.6,10,0.5,15,0.6
				S84.1,30,89.1,30c5.8,0,11.6-0.2,17.3-0.7C107,29.1,107.1,28.2,106.4,28.2L106.4,28.2z"/>
		</g>
	</g>
	<text transform="matrix(1 0 0 1 165.6301 68.5094)" class="st2 st3 st4">ИНСТИТУТ КРАСОТЫ</text>
	
		<image style="overflow:visible;enable-background:new    ;" width="843" height="816" xlink:href="BE5D736C.png"  transform="matrix(1.766949e-02 9.102463e-03 -9.408427e-03 1.835791e-02 93.1231 16.3903)">
	</image>
	
		<image style="overflow:visible;enable-background:new    ;" width="843" height="816" xlink:href="BE5D736D.png"  transform="matrix(1.002036e-02 -2.202949e-02 2.378879e-02 1.078527e-02 68.2 18.5709)">
	</image>
	
		<image style="overflow:visible;enable-background:new    ;" width="843" height="816" xlink:href="BE5D736B.png"  transform="matrix(3.475008e-03 -1.246808e-02 1.300352e-02 3.617218e-03 57.7602 12.6418)">
	</image>
	
		<image style="overflow:visible;enable-background:new    ;" width="843" height="816" xlink:href="BE5D7374.png"  transform="matrix(-7.270266e-03 -1.598668e-02 1.667510e-02 -7.567791e-03 68.4226 37.2199)">
	</image>
	
		<image style="overflow:visible;enable-background:new    ;" width="843" height="816" xlink:href="BE5D7377.png"  transform="matrix(-1.346247e-02 -1.453334e-02 1.514527e-02 -1.399790e-02 45.3918 20.7176)">
	</image>
	
		<image style="overflow:visible;enable-background:new    ;" width="843" height="816" xlink:href="BE5D7375.png"  transform="matrix(-2.470668e-02 2.806605e-03 -2.919589e-03 -2.570128e-02 64.1403 40.5825)">
	</image>
	
		<image style="overflow:visible;enable-background:new    ;" width="843" height="816" xlink:href="BE5D737B.png"  transform="matrix(1.063229e-02 -6.819750e-03 7.098837e-03 1.109124e-02 2.7998 26.0559)">
	</image>
	
		<image style="overflow:visible;enable-background:new    ;" width="843" height="816" xlink:href="BE5D737C.png"  transform="matrix(1.981124e-02 1.552773e-02 -1.613966e-02 2.065265e-02 25.557 5.0712)">
	</image>
</g>
</svg>
